#!OML:ASF H:\Terrain\Patient Classification 1\PLAYGROUND\JustinFriday\JustinFriday.ASF
:FULLY-SPECIFIED
:DEGREES
117
root 9.47544 17.8318 -18.1231 4.21748 -2.44527 -5.22581
lowerback 13.9604 0.787461 2.29752
upperback 3.02241 1.55103 3.46392
thorax -4.67072 0.747254 2.06884
lowerneck -7.40313 -3.84827 -7.25532
upperneck 0.763212 -4.70498 6.65682
head 1.93201 -2.23676 3.27846
rclavicle -4.07509e-015 -4.37326e-015
rhumerus -20.7447 0.630774 -79.8548
rradius 102.218
rwrist -14.3592
rhand -21.9817 -7.39835
rfingers 7.12502
rthumb 4.42645 -37.3321
lclavicle -4.07509e-015 -4.37326e-015
lhumerus -27.1414 -2.0608 79.3694
lradius 108.792
lwrist 9.95442
lhand -33.6739 -21.6033
lfingers 7.12502
lthumb -6.86474 8.26544
rfemur -12.9935 0.154377 24.1572
rtibia 31.9579
rfoot -15.7604 -9.88866
rtoes 6.39257
lfemur -13.6453 2.68713 -11.4019
ltibia 32.3296
lfoot -18.0335 1.47332
ltoes -4.72767
118
root 9.47951 17.8383 -18.1201 4.29 -2.38531 -5.02305
lowerback 13.8581 0.767896 2.16111
upperback 3.0753 1.49523 3.3956
thorax -4.55948 0.72175 2.08465
lowerneck -7.57755 -3.88289 -7.22661
upperneck 0.769242 -4.74142 6.61578
head 1.96609 -2.25291 3.25499
rclavicle 1.3418e-014 8.34896e-015
rhumerus -20.5276 0.528985 -79.9302
rradius 102.435
rwrist -14.3343
rhand -22.1592 -7.50941
rfingers 7.12502
rthumb 4.255 -37.4467
lclavicle 1.3418e-014 8.34896e-015
lhumerus -26.9877 -2.10252 79.3716
lradius 108.749
lwrist 9.84501
lhand -33.7589 -21.6426
lfingers 7.12502
lthumb -6.94678 8.2234
rfemur -13.0579 0.0263179 23.9123
rtibia 31.8656
rfoot -15.5176 -9.94725
rtoes 5.58813
lfemur -13.7838 2.64523 -11.6638
ltibia 32.4034
lfoot -18 1.41535
ltoes -4.54013
119
root 9.47992 17.8389 -18.1175 4.29768 -2.41251 -5.27307
lowerback 13.9495 0.770112 2.39441
upperback 3.04444 1.54046 3.46399
thorax -4.6387 0.741021 2.01619
lowerneck -7.41594 -3.92367 -7.1493
upperneck 0.612631 -4.80475 6.5338
head 1.88342 -2.28826 3.21007
rclavicle -8.44835e-015 -1.74931e-014
rhumerus -20.5459 0.475169 -79.9878
rradius 102.762
rwrist -14.4464
rhand -21.9856 -7.84737
rfingers 7.12502
rthumb 4.42271 -37.7812
lclavicle -8.44835e-015 -1.74931e-014
lhumerus -27.0089 -2.21116 79.32
lradius 108.796
lwrist 9.82441
lhand -33.8163 -21.6419
lfingers 7.12502
lthumb -7.00222 8.22224
rfemur -13.0258 0.138878 24.202
rtibia 31.7728
rfoot -15.3836 -10.0992
rtoes 5.20367
lfemur -13.8089 2.67137 -11.3609
ltibia 32.4896
lfoot -18.0868 1.34945
ltoes -4.40125
120
root 9.47901 17.8348 -18.1174 4.31072 -2.4014 -5.75175
lowerback 14.0417 0.715629 2.82663
upperback 3.01184 1.54528 3.62205
thorax -4.71652 0.738058 1.93738
lowerneck -7.21351 -3.94472 -7.1208
upperneck 0.371978 -4.83768 6.46971
head 1.7659 -2.30876 3.18301
rclavicle -9.34288e-015 1.86858e-014
rhumerus -20.4435 0.574009 -80.0585
rradius 103.068
rwrist -14.6158
rhand -21.8122 -7.73364
rfingers 7.12502
rthumb 4.59014 -37.6639
lclavicle -9.34288e-015 1.86858e-014
lhumerus -27.0335 -2.17689 79.2914
lradius 108.807
lwrist 9.80401
lhand -33.9341 -21.6626
lfingers 7.12502
lthumb -7.11597 8.19777
rfemur -12.9766 0.317823 24.7505
rtibia 31.6954
rfoot -15.444 -10.1621
rtoes 5.80927
lfemur -13.8269 2.67169 -10.7749
ltibia 32.555
lfoot -18.2006 1.32645
ltoes -4.43443
121
root 9.47893 17.8337 -18.1154 4.35568 -2.31181 -5.9457
lowerback 14.0587 0.668051 3.00048
upperback 2.99715 1.51394 3.70541
thorax -4.73861 0.720626 1.93281
lowerneck -7.04617 -3.97346 -7.1344
upperneck 0.0813337 -4.87689 6.51531
head 1.64487 -2.3297 3.20161
rclavicle -1.91827e-014 -1.63003e-014
rhumerus -20.2078 0.597436 -80.0739
rradius 103.284
rwrist -14.6553
rhand -21.9618 -7.59748
rfingers 7.12502
rthumb 4.44565 -37.5308
lclavicle -1.91827e-014 -1.63003e-014
lhumerus -26.9235 -2.15399 79.3531
lradius 108.742
lwrist 9.77343
lhand -33.9562 -21.4822
lfingers 7.12502
lthumb -7.13726 8.3775
rfemur -12.9613 0.32524 24.9743
rtibia 31.635
rfoot -15.4662 -10.1598
rtoes 6.26492
lfemur -13.9075 2.62354 -10.5249
ltibia 32.5829
lfoot -18.2054 1.20001
ltoes -4.31267
122
root 9.48626 17.8397 -18.1068 4.43442 -2.22112 -5.68187
lowerback 13.9328 0.681932 2.84385
upperback 3.00143 1.49785 3.61105
thorax -4.66648 0.715031 1.92533
lowerneck -6.93564 -3.97387 -7.11506
upperneck -0.051261 -4.8854 6.65787
head 1.58674 -2.33287 3.24834
rclavicle 1.18277e-014 -2.06736e-014
rhumerus -20.1101 0.455448 -80.1074
rradius 103.492
rwrist -14.6302
rhand -22.333 -7.32224
rfingers 7.12502
rthumb 4.08717 -37.2628
lclavicle 1.18277e-014 -2.06736e-014
lhumerus -26.6791 -2.28056 79.4243
lradius 108.615
lwrist 9.75917
lhand -33.7952 -21.197
lfingers 7.12502
lthumb -6.9819 8.66784
rfemur -13.0054 0.0426938 24.639
rtibia 31.6184
rfoot -15.4195 -10.0378
rtoes 6.03278
lfemur -13.9963 2.51751 -10.861
ltibia 32.5766
lfoot -18.1903 1.16309
ltoes -4.09531
123
root 9.49602 17.8468 -18.0947 4.51263 -2.17244 -5.33617
lowerback 13.8175 0.663988 2.63343
upperback 2.97756 1.43345 3.49615
thorax -4.62985 0.685848 1.93502
lowerneck -6.81957 -3.85925 -7.23547
upperneck -0.0537036 -4.73507 6.85691
head 1.56525 -2.25639 3.3489
rclavicle -5.96354e-015 1.07344e-014
rhumerus -20.0932 0.458581 -80.2156
rradius 103.735
rwrist -14.7562
rhand -22.3966 -6.93678
rfingers 7.12502
rthumb 4.02582 -36.8785
lclavicle -5.96354e-015 1.07344e-014
lhumerus -26.5175 -2.28753 79.46
lradius 108.427
lwrist 9.63433
lhand -33.6468 -21.0259
lfingers 7.12502
lthumb -6.83858 8.84369
rfemur -13.0674 -0.326124 24.1869
rtibia 31.6418
rfoot -15.4533 -9.83374
rtoes 5.56434
lfemur -14.0167 2.42733 -11.3175
ltibia 32.5426
lfoot -18.2206 1.28285
ltoes -4.33293
